<?xml version="1.0"?>
<svg width="512" height="512" xmlns="http://www.w3.org/2000/svg" xmlns:svg="http://www.w3.org/2000/svg" xmlns:se="http://svg-edit.googlecode.com" class="svg-inline--fa fa-dove fa-w-16">
 <g class="layer">
  <title>Layer 1</title>
  <g id="svg_3">
   <ellipse cx="269.499993" cy="262.458328" fill="#000000" id="svg_2" rx="234.374995" ry="234.374995" stroke="#000000" stroke-width="5"/>
   <path d="m282.335718,166.267589l0,-27.242482c-27.339431,-35.192246 -45.662666,-76.88003 -52.44905,-121.379316c-2.035915,-13.088025 -18.420184,-18.226287 -26.951637,-8.046712c-20.456099,24.140136 -36.549523,52.44905 -47.407736,83.86031c33.156331,37.131213 77.558669,62.628625 126.808423,72.8082zm108.582136,-100.050682c-42.851164,0 -77.558669,34.804452 -77.558669,77.655617l0,57.587311c-101.214062,-6.010797 -187.110288,-68.348577 -225.889622,-156.765459c-5.332158,-12.118542 -22.492014,-12.79718 -28.115017,-0.872535c-16.093424,34.028866 -25.206567,72.032613 -25.206567,112.169224c0,68.639422 33.059382,132.722271 82.503034,180.226956c12.79718,12.312439 25.303516,22.492014 37.712903,31.799054l-139.508655,34.901401c-10.373472,2.617605 -15.026992,14.639199 -9.210092,23.655394c16.86901,26.079102 58.556795,70.287543 148.52485,73.97158c7.755867,0.290845 15.511734,-2.520657 21.425582,-7.658919l63.210315,-54.388016l74.55327,0c85.702329,0 155.117337,-69.31806 155.117337,-155.020389l0,-155.214285l31.023467,-62.046935l-108.582136,0zm0,93.167351c-8.531454,0 -15.511734,-6.98028 -15.511734,-15.511734s6.98028,-15.511734 15.511734,-15.511734s15.511734,6.98028 15.511734,15.511734s-6.98028,15.511734 -15.511734,15.511734z" fill="#FFC94C" id="svg_1"/>
  </g>
 </g>
</svg>